/vscmnt/brussel_pixiu_data/_data_brussel/112/vsc11236/PredSimResults/SUBJ10_Dhondt2024_3seg/weighted-LRposFixed/worker_02.mot
version=1
nRows=4
nColumns=124
inDegrees=yes
endheader
                time	         pelvis_tilt	         pelvis_list	     pelvis_rotation	           pelvis_tx	           pelvis_ty	           pelvis_tz	       hip_flexion_r	     hip_adduction_r	      hip_rotation_r	        knee_angle_r	       ankle_angle_r	    subtalar_angle_r	         mtp_angle_r	       hip_flexion_l	     hip_adduction_l	      hip_rotation_l	        knee_angle_l	       ankle_angle_l	    subtalar_angle_l	         mtp_angle_l	    lumbar_extension	      lumbar_bending	     lumbar_rotation	          arm_flex_r	           arm_add_r	           arm_rot_r	        elbow_flex_r	          arm_flex_l	           arm_add_l	           arm_rot_l	        elbow_flex_l	glut_med1_r/activation	glut_med2_r/activation	glut_med3_r/activation	glut_min1_r/activation	glut_min2_r/activation	glut_min3_r/activation	semimem_r/activation	semiten_r/activation	bifemlh_r/activation	bifemsh_r/activation	    sar_r/activation	add_long_r/activation	add_brev_r/activation	add_mag1_r/activation	add_mag2_r/activation	add_mag3_r/activation	    tfl_r/activation	   pect_r/activation	   grac_r/activation	glut_max1_r/activation	glut_max2_r/activation	glut_max3_r/activation	iliacus_r/activation	  psoas_r/activation	quad_fem_r/activation	    gem_r/activation	   peri_r/activation	rect_fem_r/activation	vas_med_r/activation	vas_int_r/activation	vas_lat_r/activation	med_gas_r/activation	lat_gas_r/activation	 soleus_r/activation	tib_post_r/activation	flex_dig_r/activation	flex_hal_r/activation	tib_ant_r/activation	per_brev_r/activation	per_long_r/activation	per_tert_r/activation	ext_dig_r/activation	ext_hal_r/activation	glut_med1_l/activation	glut_med2_l/activation	glut_med3_l/activation	glut_min1_l/activation	glut_min2_l/activation	glut_min3_l/activation	semimem_l/activation	semiten_l/activation	bifemlh_l/activation	bifemsh_l/activation	    sar_l/activation	add_long_l/activation	add_brev_l/activation	add_mag1_l/activation	add_mag2_l/activation	add_mag3_l/activation	    tfl_l/activation	   pect_l/activation	   grac_l/activation	glut_max1_l/activation	glut_max2_l/activation	glut_max3_l/activation	iliacus_l/activation	  psoas_l/activation	quad_fem_l/activation	    gem_l/activation	   peri_l/activation	rect_fem_l/activation	vas_med_l/activation	vas_int_l/activation	vas_lat_l/activation	med_gas_l/activation	lat_gas_l/activation	 soleus_l/activation	tib_post_l/activation	flex_dig_l/activation	flex_hal_l/activation	tib_ant_l/activation	per_brev_l/activation	per_long_l/activation	per_tert_l/activation	ext_dig_l/activation	ext_hal_l/activation	 ercspn_r/activation	 ercspn_l/activation	 intobl_r/activation	 intobl_l/activation	 extobl_r/activation	 extobl_l/activation	
          0.00000000	         -2.91831738	         -0.21255372	          2.24567385	          0.00000000	          0.82244684	         -0.00137820	         28.97708162	          2.94529549	          4.29421090	        -13.32231582	          8.80441197	         -0.70582101	          0.23459257	        -16.54151093	          2.02734450	          9.76305964	         -6.01233871	          5.52683666	         11.92613193	         13.33174512	         -5.41031327	         -0.46941847	         -1.10275448	        -28.31065516	        -14.44358814	          3.16229088	         31.16939952	         25.94480892	        -13.49818450	         18.20810959	         42.83736632	          0.01379074	          0.01244873	          0.01000429	          0.01374037	          0.01000154	          0.01000189	          0.11019031	          0.02746843	          0.01174371	          0.01000122	          0.01432513	          0.06993016	          0.14025256	          0.11095083	          0.12811602	          0.08732677	          0.01000082	          0.01747887	          0.03505645	          0.01174472	          0.01546367	          0.05518359	          0.01673933	          0.01543977	          0.01557443	          0.01000405	          0.01000073	          0.01000015	          0.07121248	          0.07379040	          0.06006686	          0.01174187	          0.01000614	          0.01174312	          0.01000014	          0.01000059	          0.01000110	          0.28893196	          0.18941524	          0.11313507	          0.11789720	          0.28839437	          0.03601783	          0.20901827	          0.09581444	          0.05609377	          0.27883917	          0.22280588	          0.13638744	          0.01174096	          0.01069535	          0.01173989	          0.02933734	          0.08445638	          0.01000022	          0.01000031	          0.01000079	          0.01000301	          0.01000210	          0.34022278	          0.01000102	          0.01000219	          0.01621064	          0.01613229	          0.01050148	          0.17986953	          0.34169823	          0.01619366	          0.01619473	          0.04971371	          0.20947885	          0.01000049	          0.01000061	          0.01000050	          0.28247905	          0.31700876	          0.25145167	          0.23437963	          0.31070399	          0.36633144	          0.01379048	          0.03339926	          0.16975891	          0.01196561	          0.01331185	          0.01379426	          0.01379015	          0.01000001	          0.02837301	          0.01000022	          0.08817765	          0.01000039	
          0.01045891	         -2.90811844	         -0.44376170	          2.39880256	          0.01409296	          0.82198686	         -0.00116058	         28.33709062	          3.38062892	          4.35188864	        -13.07275706	          8.11896194	         -0.82100976	          0.23878139	        -16.49699508	          1.78863364	          9.63942576	         -7.77187263	          4.70497203	         12.26880947	         14.33225695	         -5.26490292	         -0.03571378	         -1.15528527	        -29.31760054	        -14.40088806	          3.08726918	         31.22954520	         25.92669009	        -13.50235306	         18.28766730	         43.92025382	          0.01174372	          0.01174292	          0.01000018	          0.01174359	          0.01174350	          0.01170936	          0.09383373	          0.02339111	          0.01000052	          0.01000015	          0.01219901	          0.05955098	          0.13846678	          0.15136220	          0.13209628	          0.07450308	          0.01000175	          0.01991287	          0.02985304	          0.01000157	          0.01316834	          0.04699260	          0.01619345	          0.01314835	          0.14329604	          0.01000064	          0.01000083	          0.01379029	          0.10367765	          0.06902404	          0.08542402	          0.01000001	          0.01000003	          0.01000000	          0.01000035	          0.01000231	          0.01000054	          0.29252594	          0.17001297	          0.11195957	          0.14354515	          0.31312176	          0.04620402	          0.25273618	          0.08159177	          0.04776723	          0.23924302	          0.18973273	          0.11614215	          0.01000192	          0.01000023	          0.01000018	          0.02498255	          0.07191987	          0.03706936	          0.01000084	          0.01000099	          0.01000225	          0.01000062	          0.28972031	          0.06547996	          0.01027877	          0.01380466	          0.01373802	          0.01000119	          0.15316986	          0.29097665	          0.01378997	          0.01379097	          0.04233423	          0.18327697	          0.01000040	          0.01000053	          0.01000045	          0.24054790	          0.26995209	          0.23394770	          0.22573868	          0.26472387	          0.32815659	          0.01174343	          0.03038487	          0.16991113	          0.01018949	          0.01133586	          0.01174667	          0.01174315	          0.01336976	          0.02416133	          0.02830559	          0.07508857	          0.01000021	
          0.02091783	         -2.89437222	         -0.68405654	          2.53976777	          0.02839627	          0.82152338	         -0.00095011	         27.65787528	          3.79000429	          4.43676882	        -13.36567532	          7.18965478	         -0.91632269	          0.24089534	        -16.35043598	          1.55448682	          9.50773457	         -9.70941015	          3.71648496	         12.59594520	         15.33336936	         -5.10887015	          0.41174777	         -1.20020015	        -30.09591955	        -14.34791813	          3.18034163	         30.84842995	         25.78243118	        -13.50553255	         18.30363314	         44.91688527	          0.01000050	          0.01000015	          0.02518916	          0.01000046	          0.01000044	          0.01000024	          0.07990510	          0.06489550	          0.04472851	          0.01901625	          0.01378928	          0.05071150	          0.12126440	          0.12889586	          0.11248863	          0.06344400	          0.01000062	          0.01695940	          0.10644873	          0.01022652	          0.01771796	          0.04001727	          0.01379002	          0.01379014	          0.14428472	          0.01999803	          0.01000356	          0.01174331	          0.08828780	          0.05877817	          0.07274373	          0.01619477	          0.01701177	          0.01424700	          0.01175854	          0.01174800	          0.01387045	          0.24910345	          0.17513211	          0.10704519	          0.12223741	          0.26664588	          0.03934555	          0.21522020	          0.06948032	          0.04067668	          0.20373022	          0.16156890	          0.09890205	          0.01423305	          0.01000581	          0.01000561	          0.02127417	          0.06124419	          0.07840182	          0.01174642	          0.01174406	          0.01174300	          0.01174474	          0.24671437	          0.06874263	          0.01000583	          0.01175582	          0.01169941	          0.01000530	          0.13043340	          0.24778418	          0.01174306	          0.01174401	          0.03605016	          0.15607191	          0.02837049	          0.01281989	          0.01175044	          0.20484100	          0.22988045	          0.19922094	          0.19408929	          0.22542865	          0.27944542	          0.01000024	          0.02986328	          0.17292754	          0.01000011	          0.01000003	          0.01000305	          0.01000002	          0.02283585	          0.02057484	          0.02463039	          0.06394244	          0.01379111	
          0.03137674	         -2.87825217	         -0.94312585	          2.66590530	          0.04280365	          0.82107242	         -0.00075159	         26.94360943	          4.16530889	          4.55699080	        -13.79279576	          6.14514381	         -0.99542073	          0.24172292	        -16.08100255	          1.32031291	          9.35799373	        -11.84335436	          2.56092768	         12.88679468	         16.27836355	         -4.94969777	          0.88199952	         -1.23724560	        -30.62809979	        -14.29389713	          3.45417483	         30.03638564	         25.53378050	        -13.50956354	         18.29138936	         45.80426533	          0.18404173	          0.20522370	          0.22555565	          0.13448729	          0.01000574	          0.10376865	          0.06804402	          0.05526442	          0.03809017	          0.01619377	          0.01174297	          0.04318400	          0.10326443	          0.10976344	          0.09579242	          0.07839122	          0.01000111	          0.01444286	          0.09064799	          0.15356980	          0.01970511	          0.04809767	          0.01174324	          0.01174327	          0.12286729	          0.01702983	          0.01000167	          0.01000023	          0.11899188	          0.05005334	          0.09175147	          0.01379083	          0.01448656	          0.01213218	          0.01001312	          0.01000421	          0.01181159	          0.37373275	          0.22139210	          0.11488318	          0.45920310	          0.36635745	          0.22516549	          0.21795667	          0.05916668	          0.03463865	          0.25710084	          0.13758575	          0.08422108	          0.01628019	          0.01000021	          0.01000015	          0.01811627	          0.05215321	          0.06676420	          0.01000301	          0.01000134	          0.01000215	          0.01000224	          0.21009230	          0.05853956	          0.01000056	          0.01001120	          0.01000059	          0.01000046	          0.11107194	          0.21100325	          0.01000010	          0.01000096	          0.03069890	          0.13779327	          0.02415950	          0.01091735	          0.01000650	          0.17443443	          0.19575703	          0.16964861	          0.16527878	          0.19196621	          0.23796472	          0.01000003	          0.06003268	          0.16413412	          0.01000026	          0.01000010	          0.01000022	          0.02609466	          0.04570840	          0.01752072	          0.02097426	          0.05445084	          0.01174397	
